<svg width="24" height="24" viewBox="0 0 24 24" fill="none" xmlns="http://www.w3.org/2000/svg">
<path opacity="0.25" d="M8.53125 18.6094C8.53125 18.6094 8.48438 18.5625 8.4375 18.5156C8.39062 18.5156 8.34375 18.4688 8.25 18.4688C8.0625 18.4688 8.01562 18.5625 8.01562 18.6562C8.01562 18.7969 8.0625 18.8438 8.25 18.8438C8.4375 18.8438 8.53125 18.75 8.53125 18.6094ZM7.07812 18.4219C7.07812 18.3281 7.17188 18.2812 7.35938 18.3281C7.5 18.375 7.54688 18.4219 7.54688 18.5156C7.54688 18.6094 7.5 18.6562 7.45312 18.6562C7.35938 18.7031 7.3125 18.7031 7.26562 18.6562C7.17188 18.6562 7.125 18.6094 7.07812 18.5625C7.03125 18.5156 7.03125 18.4688 7.07812 18.4219ZM9.14062 18.3281C9.28125 18.3281 9.375 18.375 9.375 18.4688C9.375 18.5625 9.32812 18.6562 9.1875 18.7031C9.09375 18.7031 9.04688 18.7031 9 18.7031C8.95312 18.7031 8.90625 18.6094 8.90625 18.5156C8.90625 18.4219 8.95312 18.375 9.14062 18.3281ZM12.2344 0.375C14.3438 0.375 16.3125 0.890625 18.1406 1.875C19.9219 2.90625 21.375 4.26562 22.4062 5.95312C23.4375 7.73438 24 9.70312 24 11.8125C24 14.4375 23.25 16.7344 21.7969 18.7969C20.3438 20.8594 18.4688 22.2656 16.125 23.0156C15.8438 23.1094 15.6562 23.0625 15.5156 22.9219C15.375 22.8281 15.3281 22.6406 15.3281 22.4531V18.5156C15.3281 17.5312 15.0469 16.8281 14.5312 16.3594C15.6562 16.2656 16.5469 16.0781 17.1094 15.8906C17.9531 15.6094 18.6562 15.1406 19.125 14.4844C19.6406 13.6875 19.9219 12.5625 19.9219 11.1562C19.9219 10.5938 19.7812 10.0781 19.5938 9.60938C19.4062 9.32812 19.125 8.90625 18.7031 8.4375C18.7969 8.15625 18.8906 7.78125 18.9375 7.3125C18.9375 6.65625 18.8438 5.95312 18.6094 5.25C18.2812 5.15625 17.8594 5.25 17.2969 5.4375C16.9219 5.625 16.4531 5.8125 15.9844 6.09375L15.375 6.51562C14.3906 6.23438 13.4062 6.09375 12.375 6.09375C11.3438 6.09375 10.4062 6.23438 9.46875 6.51562L8.85938 6.09375C8.34375 5.8125 7.875 5.625 7.5 5.4375C6.9375 5.25 6.51562 5.15625 6.23438 5.25C5.95312 5.95312 5.8125 6.65625 5.90625 7.3125C5.90625 7.78125 5.95312 8.10938 6.09375 8.39062C5.71875 8.85938 5.4375 9.32812 5.25 9.70312C5.0625 10.0781 5.01562 10.5938 5.01562 11.1562C5.01562 12.5625 5.25 13.6875 5.76562 14.4375C6.1875 15.0938 6.84375 15.6094 7.73438 15.8906C8.29688 16.0781 9.14062 16.2656 10.2656 16.3594C9.84375 16.7344 9.60938 17.2969 9.51562 17.9531C8.95312 18.2344 8.4375 18.3281 7.96875 18.2344C7.125 18.1875 6.51562 17.7656 6.09375 16.9688C5.90625 16.6406 5.625 16.3594 5.34375 16.125C5.10938 16.0312 4.875 15.8906 4.64062 15.7969L4.3125 15.75C3.9375 15.75 3.75 15.8438 3.75 15.9375C3.75 16.0312 3.79688 16.1719 3.98438 16.2656L4.21875 16.4531C4.40625 16.5938 4.64062 16.7812 4.875 17.0625C5.0625 17.2969 5.20312 17.5312 5.34375 17.8125L5.53125 18.1875C5.67188 18.6562 5.95312 19.0312 6.42188 19.2656C6.79688 19.5 7.21875 19.6406 7.78125 19.6875C8.15625 19.7344 8.53125 19.7344 8.95312 19.6406L9.46875 19.5938L9.51562 22.4531C9.51562 22.6406 9.42188 22.8281 9.28125 22.9219C9.14062 23.0625 8.95312 23.1094 8.71875 23.0156C6.32812 22.2656 4.40625 20.8594 2.95312 18.7969C1.45312 16.7344 0.75 14.4375 0.75 11.8125C0.75 9.70312 1.21875 7.78125 2.25 6C3.23438 4.26562 4.59375 2.90625 6.375 1.875C8.10938 0.890625 10.0781 0.375 12.2344 0.375ZM5.29688 16.5469C5.34375 16.5 5.4375 16.5 5.53125 16.5938C5.625 16.6875 5.625 16.7812 5.57812 16.8281C5.48438 16.9219 5.4375 16.875 5.34375 16.7812C5.25 16.6875 5.20312 16.6406 5.29688 16.5469ZM4.78125 16.1719C4.82812 16.125 4.92188 16.125 5.01562 16.1719C5.10938 16.2188 5.10938 16.2656 5.10938 16.3594C5.0625 16.4531 4.96875 16.4531 4.875 16.3594C4.78125 16.3125 4.73438 16.2656 4.78125 16.1719ZM6.32812 17.8125C6.32812 17.8125 6.375 17.8125 6.46875 17.8125C6.51562 17.8125 6.5625 17.8594 6.60938 17.9062C6.65625 17.9531 6.70312 18 6.70312 18.0469C6.70312 18.1406 6.70312 18.1875 6.70312 18.1875C6.60938 18.2812 6.46875 18.2812 6.375 18.1406C6.28125 18.0938 6.28125 18.0469 6.28125 17.9531C6.28125 17.9062 6.28125 17.8594 6.32812 17.8125ZM5.76562 17.1562C5.8125 17.1562 5.85938 17.1562 5.90625 17.1562C5.95312 17.1562 6 17.2031 6.04688 17.25C6.14062 17.3906 6.14062 17.4844 6.04688 17.5312C6 17.5781 5.95312 17.5781 5.90625 17.5312C5.85938 17.5312 5.8125 17.4844 5.76562 17.4375C5.67188 17.2969 5.67188 17.2031 5.76562 17.1562Z" fill="#1AC0C6"/>
</svg>
